<svg xmlns="http://www.w3.org/2000/svg" width="800" height="800" viewBox="0 0 800 800">
  <defs>
    <filter id="noise">
      <feTurbulence type="fractalNoise" baseFrequency="0.82" numOctaves="3" seed="5" stitchTiles="stitch"/>
      <feColorMatrix type="matrix" values="0 0 0 0 0.10  0 0 0 0 0.55  0 0 0 0 0.12  0 0 0 0.55 0"/>
    </filter>
    <filter id="coarse">
      <feTurbulence type="turbulence" baseFrequency="0.012 0.09" numOctaves="2" seed="8"/>
      <feColorMatrix type="matrix" values="0 0 0 0 0.06  0 0 0 0 0.32  0 0 0 0 0.08  0 0 0 0.5 0"/>
    </filter>
  </defs>

  <rect width="800" height="800" fill="#040604"/>
  <rect width="800" height="800" filter="url(#coarse)" opacity="0.5"/>
  <rect width="800" height="800" filter="url(#noise)" opacity="0.35"/>

  <ellipse cx="400" cy="400" rx="330" ry="330" fill="#12240f" opacity="0.75"/>

  <rect x="0" y="303" width="800" height="11" fill="#9dff8a" opacity="0.17"/>
  <rect x="0" y="166" width="800" height="16" fill="#9dff8a" opacity="0.26"/>
  <rect x="0" y="474" width="800" height="9" fill="#000000" opacity="0.14"/>
  <rect x="0" y="249" width="800" height="7" fill="#9dff8a" opacity="0.21"/>
  <rect x="0" y="725" width="800" height="6" fill="#9dff8a" opacity="0.26"/>
  <rect x="0" y="265" width="800" height="16" fill="#000000" opacity="0.26"/>
  <rect x="91" y="642" width="91" height="26" fill="#000" opacity="0.85"/>
  <rect x="586" y="244" width="145" height="34" fill="#000" opacity="0.85"/>
  <rect x="354" y="275" width="79" height="15" fill="#000" opacity="0.85"/>
  <rect x="51" y="432" width="156" height="20" fill="#000" opacity="0.85"/>
  <rect x="298" y="498" width="61" height="25" fill="#000" opacity="0.85"/>
  
  <text x="404" y="365" text-anchor="middle" font-family="monospace" font-size="52" font-weight="bold" fill="#ff4d3a" opacity="0.22" letter-spacing="4">THE FLESH</text>
  <text x="404" y="439" text-anchor="middle" font-family="monospace" font-size="52" font-weight="bold" fill="#ff4d3a" opacity="0.22" letter-spacing="4">GARDENERS</text>
  <text x="400" y="363" text-anchor="middle" font-family="monospace" font-size="52" font-weight="bold" fill="#9dff8a" opacity="0.9" letter-spacing="4">THE FLESH</text>
  <text x="400" y="437" text-anchor="middle" font-family="monospace" font-size="52" font-weight="bold" fill="#9dff8a" opacity="0.9" letter-spacing="4">GARDENERS</text>

  <!-- scanlines -->
  <g opacity="0.3">
    <rect x="0" y="0" width="800" height="2" fill="#000" opacity="0.55"/><rect x="0" y="8" width="800" height="2" fill="#000" opacity="0.55"/><rect x="0" y="16" width="800" height="2" fill="#000" opacity="0.55"/><rect x="0" y="24" width="800" height="2" fill="#000" opacity="0.55"/><rect x="0" y="32" width="800" height="2" fill="#000" opacity="0.55"/><rect x="0" y="40" width="800" height="2" fill="#000" opacity="0.55"/><rect x="0" y="48" width="800" height="2" fill="#000" opacity="0.55"/><rect x="0" y="56" width="800" height="2" fill="#000" opacity="0.55"/><rect x="0" y="64" width="800" height="2" fill="#000" opacity="0.55"/><rect x="0" y="72" width="800" height="2" fill="#000" opacity="0.55"/><rect x="0" y="80" width="800" height="2" fill="#000" opacity="0.55"/><rect x="0" y="88" width="800" height="2" fill="#000" opacity="0.55"/><rect x="0" y="96" width="800" height="2" fill="#000" opacity="0.55"/><rect x="0" y="104" width="800" height="2" fill="#000" opacity="0.55"/><rect x="0" y="112" width="800" height="2" fill="#000" opacity="0.55"/><rect x="0" y="120" width="800" height="2" fill="#000" opacity="0.55"/><rect x="0" y="128" width="800" height="2" fill="#000" opacity="0.55"/><rect x="0" y="136" width="800" height="2" fill="#000" opacity="0.55"/><rect x="0" y="144" width="800" height="2" fill="#000" opacity="0.55"/><rect x="0" y="152" width="800" height="2" fill="#000" opacity="0.55"/><rect x="0" y="160" width="800" height="2" fill="#000" opacity="0.55"/><rect x="0" y="168" width="800" height="2" fill="#000" opacity="0.55"/><rect x="0" y="176" width="800" height="2" fill="#000" opacity="0.55"/><rect x="0" y="184" width="800" height="2" fill="#000" opacity="0.55"/><rect x="0" y="192" width="800" height="2" fill="#000" opacity="0.55"/><rect x="0" y="200" width="800" height="2" fill="#000" opacity="0.55"/><rect x="0" y="208" width="800" height="2" fill="#000" opacity="0.55"/><rect x="0" y="216" width="800" height="2" fill="#000" opacity="0.55"/><rect x="0" y="224" width="800" height="2" fill="#000" opacity="0.55"/><rect x="0" y="232" width="800" height="2" fill="#000" opacity="0.55"/><rect x="0" y="240" width="800" height="2" fill="#000" opacity="0.55"/><rect x="0" y="248" width="800" height="2" fill="#000" opacity="0.55"/><rect x="0" y="256" width="800" height="2" fill="#000" opacity="0.55"/><rect x="0" y="264" width="800" height="2" fill="#000" opacity="0.55"/><rect x="0" y="272" width="800" height="2" fill="#000" opacity="0.55"/><rect x="0" y="280" width="800" height="2" fill="#000" opacity="0.55"/><rect x="0" y="288" width="800" height="2" fill="#000" opacity="0.55"/><rect x="0" y="296" width="800" height="2" fill="#000" opacity="0.55"/><rect x="0" y="304" width="800" height="2" fill="#000" opacity="0.55"/><rect x="0" y="312" width="800" height="2" fill="#000" opacity="0.55"/><rect x="0" y="320" width="800" height="2" fill="#000" opacity="0.55"/><rect x="0" y="328" width="800" height="2" fill="#000" opacity="0.55"/><rect x="0" y="336" width="800" height="2" fill="#000" opacity="0.55"/><rect x="0" y="344" width="800" height="2" fill="#000" opacity="0.55"/><rect x="0" y="352" width="800" height="2" fill="#000" opacity="0.55"/><rect x="0" y="360" width="800" height="2" fill="#000" opacity="0.55"/><rect x="0" y="368" width="800" height="2" fill="#000" opacity="0.55"/><rect x="0" y="376" width="800" height="2" fill="#000" opacity="0.55"/><rect x="0" y="384" width="800" height="2" fill="#000" opacity="0.55"/><rect x="0" y="392" width="800" height="2" fill="#000" opacity="0.55"/><rect x="0" y="400" width="800" height="2" fill="#000" opacity="0.55"/><rect x="0" y="408" width="800" height="2" fill="#000" opacity="0.55"/><rect x="0" y="416" width="800" height="2" fill="#000" opacity="0.55"/><rect x="0" y="424" width="800" height="2" fill="#000" opacity="0.55"/><rect x="0" y="432" width="800" height="2" fill="#000" opacity="0.55"/><rect x="0" y="440" width="800" height="2" fill="#000" opacity="0.55"/><rect x="0" y="448" width="800" height="2" fill="#000" opacity="0.55"/><rect x="0" y="456" width="800" height="2" fill="#000" opacity="0.55"/><rect x="0" y="464" width="800" height="2" fill="#000" opacity="0.55"/><rect x="0" y="472" width="800" height="2" fill="#000" opacity="0.55"/><rect x="0" y="480" width="800" height="2" fill="#000" opacity="0.55"/><rect x="0" y="488" width="800" height="2" fill="#000" opacity="0.55"/><rect x="0" y="496" width="800" height="2" fill="#000" opacity="0.55"/><rect x="0" y="504" width="800" height="2" fill="#000" opacity="0.55"/><rect x="0" y="512" width="800" height="2" fill="#000" opacity="0.55"/><rect x="0" y="520" width="800" height="2" fill="#000" opacity="0.55"/><rect x="0" y="528" width="800" height="2" fill="#000" opacity="0.55"/><rect x="0" y="536" width="800" height="2" fill="#000" opacity="0.55"/><rect x="0" y="544" width="800" height="2" fill="#000" opacity="0.55"/><rect x="0" y="552" width="800" height="2" fill="#000" opacity="0.55"/><rect x="0" y="560" width="800" height="2" fill="#000" opacity="0.55"/><rect x="0" y="568" width="800" height="2" fill="#000" opacity="0.55"/><rect x="0" y="576" width="800" height="2" fill="#000" opacity="0.55"/><rect x="0" y="584" width="800" height="2" fill="#000" opacity="0.55"/><rect x="0" y="592" width="800" height="2" fill="#000" opacity="0.55"/><rect x="0" y="600" width="800" height="2" fill="#000" opacity="0.55"/><rect x="0" y="608" width="800" height="2" fill="#000" opacity="0.55"/><rect x="0" y="616" width="800" height="2" fill="#000" opacity="0.55"/><rect x="0" y="624" width="800" height="2" fill="#000" opacity="0.55"/><rect x="0" y="632" width="800" height="2" fill="#000" opacity="0.55"/><rect x="0" y="640" width="800" height="2" fill="#000" opacity="0.55"/><rect x="0" y="648" width="800" height="2" fill="#000" opacity="0.55"/><rect x="0" y="656" width="800" height="2" fill="#000" opacity="0.55"/><rect x="0" y="664" width="800" height="2" fill="#000" opacity="0.55"/><rect x="0" y="672" width="800" height="2" fill="#000" opacity="0.55"/><rect x="0" y="680" width="800" height="2" fill="#000" opacity="0.55"/><rect x="0" y="688" width="800" height="2" fill="#000" opacity="0.55"/><rect x="0" y="696" width="800" height="2" fill="#000" opacity="0.55"/><rect x="0" y="704" width="800" height="2" fill="#000" opacity="0.55"/><rect x="0" y="712" width="800" height="2" fill="#000" opacity="0.55"/><rect x="0" y="720" width="800" height="2" fill="#000" opacity="0.55"/><rect x="0" y="728" width="800" height="2" fill="#000" opacity="0.55"/><rect x="0" y="736" width="800" height="2" fill="#000" opacity="0.55"/><rect x="0" y="744" width="800" height="2" fill="#000" opacity="0.55"/><rect x="0" y="752" width="800" height="2" fill="#000" opacity="0.55"/><rect x="0" y="760" width="800" height="2" fill="#000" opacity="0.55"/><rect x="0" y="768" width="800" height="2" fill="#000" opacity="0.55"/><rect x="0" y="776" width="800" height="2" fill="#000" opacity="0.55"/><rect x="0" y="784" width="800" height="2" fill="#000" opacity="0.55"/><rect x="0" y="792" width="800" height="2" fill="#000" opacity="0.55"/>
  </g>

  <!-- classified frame -->
  <rect x="14" y="14" width="772" height="772" fill="none" stroke="#4c7a45" stroke-width="3" stroke-dasharray="26 12"/>
  <path d="M14 84 V14 H84 M716 14 H786 V84 M786 716 V786 H716 M84 786 H14 V716" fill="none" stroke="#9dff8a" stroke-width="6"/>

  <text x="34" y="58" font-family="monospace" font-size="26" fill="#9dff8a" opacity="0.85" letter-spacing="3">FILE 01//12</text>
  <text x="766" y="58" text-anchor="end" font-family="monospace" font-size="26" fill="#ff4d3a" opacity="0.8" letter-spacing="3">CLASSIFIED</text>
  <text x="34" y="740" font-family="monospace" font-size="22" fill="#4c7a45" letter-spacing="2">36 69 71 BD B4 E8 3B 48</text>
  <text x="34" y="772" font-family="monospace" font-size="24" fill="#ffb64a" opacity="0.85" letter-spacing="3">ARCHIVE SIGNAL DEGRADED // DO NOT DECODE</text>
</svg>
